Coordinates
version=1
nRows=7
nColumns=63
inDegrees=yes

Units are S.I. units (second, meters, Newtons, ...)
If the header above contains a line with 'inDegrees', this indicates whether rotational values are in degrees (yes) or radians (no).

endheader
time	pelvis_tilt	pelvis_list	pelvis_rotation	pelvis_tx	pelvis_ty	pelvis_tz	hip_flexion_r	hip_adduction_r	hip_rotation_r	knee_angle_r	knee_angle_r_beta	ankle_angle_r	subtalar_angle_r	mtp_angle_r	hip_flexion_l	hip_adduction_l	hip_rotation_l	knee_angle_l	knee_angle_l_beta	ankle_angle_l	subtalar_angle_l	mtp_angle_l	L5_S1_Flex_Ext	L5_S1_Lat_Bending	L5_S1_axial_rotation	L4_L5_Flex_Ext	L4_L5_Lat_Bending	L4_L5_axial_rotation	L3_L4_Flex_Ext	L3_L4_Lat_Bending	L3_L4_axial_rotation	L2_L3_Flex_Ext	L2_L3_Lat_Bending	L2_L3_axial_rotation	L1_L2_Flex_Ext	L1_L2_Lat_Bending	L1_L2_axial_rotation	L1_T12_Flex_Ext	L1_T12_Lat_Bending	L1_T12_axial_rotation	Abs_r3	Abs_r2	Abs_r1	Abs_t1	Abs_t2	neck_flexion	neck_bending	neck_rotation	arm_flex_r	arm_add_r	arm_rot_r	elbow_flex_r	pro_sup_r	wrist_flex_r	wrist_dev_r	arm_flex_l	arm_add_l	arm_rot_l	elbow_flex_l	pro_sup_l	wrist_flex_l	wrist_dev_l
      0.00000000	     -0.81914702	     -4.70268242	     97.68773347	      0.28567381	      0.83515624	      0.55092594	     -1.80798122	     -2.73125941	      5.25256841	      0.65417988	      0.01141759	     24.36013360	    -12.52016529	      0.00000000	     -0.04218269	      1.73142852	     18.23005863	      0.42962000	      0.00749828	     28.86951394	     -8.50927525	      0.00000000	      0.10744734	     -0.11632687	     -0.34934907	      0.19954045	     -0.15471474	     -0.37118339	      0.17652523	     -0.28283716	     -0.37118339	      0.12280156	     -0.28283716	     -0.30568044	      0.09977560	     -0.23721376	     -0.28384612	      0.06139541	     -0.18019033	     -0.26201180	      0.76748560	     -1.31591285	     -1.94297472	      0.00000000	      0.00000000	     24.67097209	     -3.15919437	     -1.14882464	     15.18454426	    -10.21668916	     72.56787162	     40.06113617	     36.46404639	      3.33580662	      2.66405230	      8.88295698	     -9.30790174	     51.72170721	     43.18108313	     49.40282594	      4.44116582	     -3.65541118
      0.02439024	      0.10565352	     -4.23928171	     98.39679535	      0.28379482	      0.83492521	      0.55104278	     -2.26518332	     -1.74742773	      5.53499762	      0.44869691	      0.00783124	     24.51166741	    -13.53178413	      0.00000000	     -0.58414808	      0.75026443	     19.79116785	      0.34581663	      0.00603564	     28.05650264	    -10.03391154	      0.00000000	      0.04135121	      0.02449848	     -0.48810000	      0.07679332	      0.03258297	     -0.51860625	      0.06793590	      0.05956559	     -0.51860625	      0.04726029	      0.05956559	     -0.42708750	      0.03839873	      0.04995729	     -0.39658125	      0.02362808	      0.03794814	     -0.36607500	      0.29536753	      0.27713165	     -2.71466578	      0.00000000	      0.00000000	     25.13457384	     -3.79321834	     -0.31271921	     14.27426982	    -10.49726896	     71.07330063	     39.73641182	     34.89919407	      4.44583585	      5.41570701	      9.13209159	     -8.84633146	     54.12351216	     42.04391398	     49.56166863	      6.28045750	     -2.73065121
      0.04878049	      0.71739267	     -4.13327019	     98.89377632	      0.28247896	      0.83456465	      0.55121687	     -2.29195587	     -1.14049421	      5.49471938	      0.44222552	      0.00771829	     24.72918126	    -13.80366945	      0.00000000	     -0.67231384	      0.14919000	     21.61696377	      0.36932439	      0.00644593	     27.29607378	    -12.00350886	      0.00000000	      0.03667783	      0.11353935	     -0.56725622	      0.06811440	      0.15100734	     -0.60270973	      0.06025800	      0.27605958	     -0.60270973	      0.04191909	      0.27605958	     -0.49634919	      0.03405903	      0.23152945	     -0.46089568	      0.02095771	      0.17587246	     -0.42544216	      0.26198606	      1.28437986	     -3.15490891	      0.00000000	      0.00000000	     25.20266248	     -4.18727457	      0.04098280	     13.50617056	    -10.71893127	     69.75078306	     39.77469621	     33.62955043	      4.59775339	      7.63070425	      9.35690558	     -8.57809169	     55.88627581	     41.53816773	     49.26279662	      7.08047206	     -1.38883942
      0.07317073	      1.06766342	     -4.09690272	     99.26157675	      0.28163500	      0.83441119	      0.55148034	     -2.29082759	     -0.80250104	      5.22210470	      0.44406950	      0.00775047	     24.88088859	    -13.67721266	      0.00000000	     -0.67386891	     -0.18288227	     23.46850988	      0.38043917	      0.00663992	     26.62041495	    -14.00247638	      0.00000000	      0.03611141	      0.16242081	     -0.61370617	      0.06706249	      0.21601968	     -0.65206280	      0.05932743	      0.39490996	     -0.65206280	      0.04127173	      0.39490996	     -0.53699290	      0.03353305	      0.33120851	     -0.49863626	      0.02063406	      0.25158983	     -0.46027963	      0.25794017	      1.83733668	     -3.41324960	      0.00000000	      0.00000000	     25.24390912	     -4.35952786	      0.15777054	     13.07532646	    -10.85439095	     69.04992003	     39.91413402	     32.35838215	      4.35666128	      8.76705949	      9.62099645	     -8.48019304	     57.20201302	     41.34690848	     48.80227533	      7.25077883	     -0.89906863
      0.09756098	      1.10449366	     -4.10638691	     99.26162077	      0.28135951	      0.83445019	      0.55185573	     -2.26156617	     -0.79980835	      5.24839764	      0.46142984	      0.00805347	     24.90048252	    -13.66729475	      0.00000000	     -0.65176098	     -0.17771504	     23.57630338	      0.40021664	      0.00698510	     26.58746344	    -13.93749808	      0.00000000	      0.03224710	      0.17058167	     -0.62061256	      0.05988608	      0.22687362	     -0.65940085	      0.05297875	      0.41475227	     -0.65940085	      0.03685521	      0.41475227	     -0.54303599	      0.02994465	      0.34785014	     -0.50424771	      0.01842599	      0.26423100	     -0.46545942	      0.23033778	      1.92965394	     -3.45166089	      0.00000000	      0.00000000	     25.24013771	     -4.35771607	      0.15557841	     13.05431980	    -10.83170805	     69.01047143	     39.89313156	     32.32224525	      4.35842534	      8.77174928	      9.62869859	     -8.46708843	     57.21743809	     41.38299303	     48.80763351	      7.26191246	     -0.88319556
      0.12195122	      1.14554321	     -4.13142917	     99.34180095	      0.28135429	      0.83458624	      0.55220709	     -2.24860437	     -0.77255862	      5.28238953	      0.47128899	      0.00822554	     24.81727148	    -13.63092025	      0.00000000	     -0.59109596	     -0.20223490	     23.77036672	      0.38491325	      0.00671800	     26.60362886	    -13.84180073	      0.00000000	      0.03389459	      0.17321431	     -0.62163530	      0.06294564	      0.23037504	     -0.66048751	      0.05568542	      0.42115328	     -0.66048751	      0.03873812	      0.42115328	     -0.54393089	      0.03147451	      0.35321863	     -0.50507868	      0.01936737	      0.26830897	     -0.46622647	      0.24210565	      1.95943495	     -3.45734905	      0.00000000	      0.00000000	     25.21251578	     -4.36283421	      0.16158666	     13.10827690	    -10.79169536	     68.88664692	     39.93994432	     32.24207541	      4.37498877	      8.74854006	      9.76301830	     -8.48945117	     57.12894715	     41.44780817	     48.79039974	      7.25697978	     -0.91009280
      0.14634146	      1.25460662	     -4.21276041	    100.40670855	      0.28008789	      0.83452875	      0.55248722	     -2.29313990	     -0.64014425	      4.54732615	      0.46796948	      0.00816761	     24.55068362	    -14.10737935	      0.00000000	     -0.36128901	     -0.31123224	     25.86013007	      0.40153127	      0.00700804	     26.40998873	    -14.69078724	      0.00000000	      0.04877353	      0.17972888	     -0.79237353	      0.09057732	      0.23903941	     -0.84189687	      0.08013003	      0.43699280	     -0.84189687	      0.05574327	      0.43699280	     -0.69332684	      0.04529110	      0.36650314	     -0.64380349	      0.02786919	      0.27840004	     -0.59428015	      0.34838443	      2.03312906	     -4.40694385	      0.00000000	      0.00000000	     25.29130133	     -4.35668642	     -0.02080248	     12.69669553	    -10.78246355	     67.64826691	     40.35106464	     30.09414821	      4.17536071	      9.28954868	      9.62592163	     -8.51848723	     56.51644060	     41.76122996	     49.13744455	      6.91581425	     -0.82402491
